{"title":"dj-erb Alice in Shadowland xvid","uid":5693127,"size":689538788,"categoryP":"other","categoryS":"other","magnet":"?xt=urn:btih:44cbf0bd7117e2d30e135f2f9236673aebd6778c&amp;dn=dj-erb+Alice+in+Shadowland+xvid&amp;tr=udp%3A%2F%2Ftracker.openbittorrent.com%3A80&amp;tr=udp%3A%2F%2Fopen.demonii.com%3A1337&amp;tr=udp%3A%2F%2Ftracker.coppersurfer.tk%3A6969&amp;tr=udp%3A%2F%2Fexodus.desync.com%3A6969","seeders":0,"leechers":1,"uploader":null,"files":2,"time":1279158879,"description":"This the final version of the A/V presentation by DJ Erb, called &quot;Alice in Shadowland&quot; - The concept was to make a mix of almost nothing but DJ Shadow music and samples set to the Disney animated movie &quot;Alice in Wonderland.&quot; The result is, to say the least, a SPECTACULAR.\n\n\nThis is an XVID conversion of the MP4/H264 version from  &lt;a href=&quot;\nhttp://www.solesides.com/index.php?page=release&amp;id=144&quot; rel=&quot;nofollow&quot; target=&quot;_NEW&quot;&gt;\nhttp://www.solesides.com/index.php?page=release&amp;id=144&lt;/a&gt;\n\n=====================================================================================\n\nGeneral\nComplete name                    : C:\\Any Video Converter\\AVI\\dj-erb_Alice-in-Shadowland_xvid.avi\nFormat                           : AVI\nFormat/Info                      : Audio Video Interleave\nFile size                        : 658 MiB\nDuration                         : 1h 15mn\nOverall bit rate                 : 1 223 Kbps\nWriting application              : MEncoder Sherpya-SVN-r30075-4.2.5\nWriting library                  : MPlayer\n\nVideo\nID                               : 0\nFormat                           : MPEG-4 Visual\nFormat profile                   : Simple@L3\nFormat settings, BVOP            : No\nFormat settings, QPel            : No\nFormat settings, GMC             : No warppoints\nFormat settings, Matrix          : Default (H.263)\nCodec ID                         : XVID\nCodec ID/Hint                    : XviD\nDuration                         : 1h 15mn\nBit rate                         : 1 024 Kbps\nWidth                            : 720 pixels\nHeight                           : 480 pixels\nDisplay aspect ratio             : 3:2\nFrame rate                       : 23.976 fps\nStandard                         : NTSC\nResolution                       : 8 bits\nColorimetry                      : 4:2:0\nScan type                        : Progressive\nBits/(Pixel*Frame)               : 0.124\nStream size                      : 551 MiB (84%)\nWriting library                  : XviD 1.2.1 (UTC 2008-12-04)\n\nAudio\nID                               : 1\nFormat                           : MPEG Audio\nFormat version                   : Version 1\nFormat profile                   : Layer 3\nFormat_Settings_Mode             : Joint stereo\nCodec ID                         : 55\nCodec ID/Hint                    : MP3\nDuration                         : 1h 15mn\nBit rate mode                    : Variable\nBit rate                         : 187 Kbps\nChannel(s)                       : 2 channels\nSampling rate                    : 44.1 KHz\nStream size                      : 101 MiB (15%)\nAlignment                        : Aligned on interleaves\nInterleave, duration             : 26 ms (0.63 video frame)\nInterleave, preload duration     : 88 ms\nWriting library                  : LAME3.98.2\n","torrent":{"xt":"urn:btih:44cbf0bd7117e2d30e135f2f9236673aebd6778c","amp;dn":"dj-erb+Alice+in+Shadowland+xvid","amp;tr":["udp%3A%2F%2Ftracker.openbittorrent.com%3A80","udp%3A%2F%2Fopen.demonii.com%3A1337","udp%3A%2F%2Ftracker.coppersurfer.tk%3A6969","udp%3A%2F%2Fexodus.desync.com%3A6969"],"infoHash":"44cbf0bd7117e2d30e135f2f9236673aebd6778c","infoHashBuffer":{"type":"Buffer","data":[68,203,240,189,113,23,226,211,14,19,95,47,146,54,103,58,235,214,119,140]},"announce":[],"urlList":[]}}